<?xml version="1.0" standalone="no"?><!DOCTYPE svg PUBLIC "-//W3C//DTD SVG 1.1//EN" "http://www.w3.org/Graphics/SVG/1.1/DTD/svg11.dtd"><svg t="1644671538317" class="icon" viewBox="0 0 1024 1024" version="1.1" xmlns="http://www.w3.org/2000/svg" p-id="4566" xmlns:xlink="http://www.w3.org/1999/xlink" width="200" height="200"><defs><style type="text/css"></style></defs><path d="M440.832 785.408v29.696H583.68v-29.696h-24.576v-296.96h24.576v-29.696H440.32v29.696h24.576v297.472h-24.064zM169.472 785.408v29.696H312.32v-29.696h-24.576v-296.96H312.32v-29.696H169.472v29.696h24.576v297.472h-24.576zM711.68 785.408v29.696h142.848v-29.696h-24.576v-296.96h24.576v-29.696H711.68v29.696h24.576v297.472H711.68z" fill="#AEC9FF" p-id="4567"></path><path d="M102.4 871.936v12.288c-0.512 9.728 7.168 17.92 16.896 18.432h786.432c9.728-0.512 16.896-8.704 16.384-18.432v-12.288c0.512-9.728-7.168-17.92-16.384-18.432H118.784c-9.728 0-16.896 8.704-16.384 18.432zM966.656 934.912H57.344c-9.728 0.512-16.896 8.704-16.896 18.432v12.288c-0.512 9.728 7.168 17.92 16.896 18.432h909.312c9.728-0.512 16.896-8.704 16.896-18.432v-12.288c0-9.728-7.168-17.92-16.896-18.432zM89.6 424.448h844.8c7.68-0.512 14.848-5.632 16.384-13.312 2.56-7.68 0-16.384-6.144-22.016L522.24 43.52c-5.632-5.12-14.336-5.12-20.48 0L79.36 389.12c-6.144 5.632-8.704 13.824-6.144 22.016 2.048 7.168 8.704 12.8 16.384 13.312zM512.512 174.08c37.376 0 67.072 33.792 67.072 75.776s-30.208 75.776-67.072 75.776c-36.864 0-67.584-33.792-67.584-75.776S475.136 174.08 512.512 174.08z" fill="#3366FF" p-id="4568"></path></svg>